<svg xmlns="http://www.w3.org/2000/svg" viewBox="0 0 64 64">
  <defs>
    <linearGradient id="bg" x1="0%" x2="100%" y1="0%" y2="100%">
      <stop offset="0%" stop-color="#0e57a5"/>
      <stop offset="100%" stop-color="#1e8cf0"/>
    </linearGradient>
  </defs>
  <rect width="64" height="64" rx="16" fill="url(#bg)"/>
  <path d="M20 14h16l12 12v24a6 6 0 0 1-6 6H20a6 6 0 0 1-6-6V20a6 6 0 0 1 6-6Z" fill="#f7fbff"/>
  <path d="M36 14v10a4 4 0 0 0 4 4h10" fill="#d6e9ff"/>
  <path d="M25 36c5-9 10-9 15 0" fill="none" stroke="#0e57a5" stroke-linecap="round" stroke-width="4"/>
  <circle cx="24" cy="41" r="3" fill="#1e8cf0"/>
  <circle cx="32" cy="33" r="3" fill="#1e8cf0"/>
  <circle cx="40" cy="41" r="3" fill="#1e8cf0"/>
</svg>
